<?xml version="1.0" encoding="UTF-8"?>
<!DOCTYPE svg PUBLIC "-//W3C//DTD SVG 1.1//EN" "http://www.w3.org/Graphics/SVG/1.1/DTD/svg11.dtd">
<svg version="1.2" width="93mm" height="25mm" viewBox="0 0 9300 2500" preserveAspectRatio="xMidYMid" fill-rule="evenodd" stroke-width="28.222" stroke-linejoin="round" xmlns="http://www.w3.org/2000/svg" xmlns:ooo="http://xml.openoffice.org/svg/export" xmlns:xlink="http://www.w3.org/1999/xlink" xmlns:presentation="http://sun.com/xmlns/staroffice/presentation" xmlns:smil="http://www.w3.org/2001/SMIL20/" xmlns:anim="urn:oasis:names:tc:opendocument:xmlns:animation:1.0" xml:space="preserve">
 <defs class="ClipPathGroup">
  <clipPath id="presentation_clip_path" clipPathUnits="userSpaceOnUse">
   <rect x="0" y="0" width="9300" height="2500"/>
  </clipPath>
  <clipPath id="presentation_clip_path_shrink" clipPathUnits="userSpaceOnUse">
   <rect x="9" y="2" width="9282" height="2495"/>
  </clipPath>
 </defs>
 <defs class="TextShapeIndex">
  <g ooo:slide="id1" ooo:id-list="id3 id4 id5 id6 id7 id8 id9 id10 id11 id12 id13 id14 id15 id16 id17 id18 id19 id20 id21 id22 id23 id24 id25 id26 id27 id28 id29 id30 id31 id32"/>
 </defs>
 <defs class="EmbeddedBulletChars">
  <g id="bullet-char-template-57356" transform="scale(0.00048828125,-0.00048828125)">
   <path d="M 580,1141 L 1163,571 580,0 -4,571 580,1141 Z"/>
  </g>
  <g id="bullet-char-template-57354" transform="scale(0.00048828125,-0.00048828125)">
   <path d="M 8,1128 L 1137,1128 1137,0 8,0 8,1128 Z"/>
  </g>
  <g id="bullet-char-template-10146" transform="scale(0.00048828125,-0.00048828125)">
   <path d="M 174,0 L 602,739 174,1481 1456,739 174,0 Z M 1358,739 L 309,1346 659,739 1358,739 Z"/>
  </g>
  <g id="bullet-char-template-10132" transform="scale(0.00048828125,-0.00048828125)">
   <path d="M 2015,739 L 1276,0 717,0 1260,543 174,543 174,936 1260,936 717,1481 1274,1481 2015,739 Z"/>
  </g>
  <g id="bullet-char-template-10007" transform="scale(0.00048828125,-0.00048828125)">
   <path d="M 0,-2 C -7,14 -16,27 -25,37 L 356,567 C 262,823 215,952 215,954 215,979 228,992 255,992 264,992 276,990 289,987 310,991 331,999 354,1012 L 381,999 492,748 772,1049 836,1024 860,1049 C 881,1039 901,1025 922,1006 886,937 835,863 770,784 769,783 710,716 594,584 L 774,223 C 774,196 753,168 711,139 L 727,119 C 717,90 699,76 672,76 641,76 570,178 457,381 L 164,-76 C 142,-110 111,-127 72,-127 30,-127 9,-110 8,-76 1,-67 -2,-52 -2,-32 -2,-23 -1,-13 0,-2 Z"/>
  </g>
  <g id="bullet-char-template-10004" transform="scale(0.00048828125,-0.00048828125)">
   <path d="M 285,-33 C 182,-33 111,30 74,156 52,228 41,333 41,471 41,549 55,616 82,672 116,743 169,778 240,778 293,778 328,747 346,684 L 369,508 C 377,444 397,411 428,410 L 1163,1116 C 1174,1127 1196,1133 1229,1133 1271,1133 1292,1118 1292,1087 L 1292,965 C 1292,929 1282,901 1262,881 L 442,47 C 390,-6 338,-33 285,-33 Z"/>
  </g>
  <g id="bullet-char-template-9679" transform="scale(0.00048828125,-0.00048828125)">
   <path d="M 813,0 C 632,0 489,54 383,161 276,268 223,411 223,592 223,773 276,916 383,1023 489,1130 632,1184 813,1184 992,1184 1136,1130 1245,1023 1353,916 1407,772 1407,592 1407,412 1353,268 1245,161 1136,54 992,0 813,0 Z"/>
  </g>
  <g id="bullet-char-template-8226" transform="scale(0.00048828125,-0.00048828125)">
   <path d="M 346,457 C 273,457 209,483 155,535 101,586 74,649 74,723 74,796 101,859 155,911 209,963 273,989 346,989 419,989 480,963 531,910 582,859 608,796 608,723 608,648 583,586 532,535 482,483 420,457 346,457 Z"/>
  </g>
  <g id="bullet-char-template-8211" transform="scale(0.00048828125,-0.00048828125)">
   <path d="M -4,459 L 1135,459 1135,606 -4,606 -4,459 Z"/>
  </g>
  <g id="bullet-char-template-61548" transform="scale(0.00048828125,-0.00048828125)">
   <path d="M 173,740 C 173,903 231,1043 346,1159 462,1274 601,1332 765,1332 928,1332 1067,1274 1183,1159 1299,1043 1357,903 1357,740 1357,577 1299,437 1183,322 1067,206 928,148 765,148 601,148 462,206 346,322 231,437 173,577 173,740 Z"/>
  </g>
 </defs>
 <defs class="TextEmbeddedBitmaps"/>
 <g>
  <g id="id2" class="Master_Slide">
   <g id="bg-id2" class="Background"/>
   <g id="bo-id2" class="BackgroundObjects"/>
  </g>
 </g>
 <g class="SlideGroup">
  <g>
   <g id="container-id1">
    <g id="id1" class="Slide" clip-path="url(#presentation_clip_path)">
     <g class="Page">
      <g class="Group">
       <g class="com.sun.star.drawing.ClosedBezierShape">
        <g id="id3">
         <rect class="BoundingBox" stroke="none" fill="none" x="3901" y="309" width="359" height="344"/>
         <path fill="rgb(211,42,35)" stroke="none" d="M 4057,357 C 4133,344 4197,393 4207,455 4220,535 4169,596 4104,606 3927,633 3890,386 4057,357 Z M 4057,357 L 4057,357 Z M 4039,314 C 3819,358 3875,694 4118,648 4343,605 4282,266 4039,314 Z"/>
        </g>
       </g>
       <g class="com.sun.star.drawing.ClosedBezierShape">
        <g id="id4">
         <rect class="BoundingBox" stroke="none" fill="none" x="2587" y="310" width="360" height="344"/>
         <path fill="rgb(211,42,35)" stroke="none" d="M 2638,502 C 2627,424 2680,365 2744,356 2823,346 2885,394 2895,461 2920,635 2659,660 2638,502 Z M 2638,502 L 2638,502 Z M 2724,315 C 2505,361 2563,694 2804,648 2892,632 2964,553 2942,444 2923,355 2831,293 2724,315 Z"/>
        </g>
       </g>
       <g class="com.sun.star.drawing.ClosedBezierShape">
        <g id="id5">
         <rect class="BoundingBox" stroke="none" fill="none" x="2268" y="316" width="257" height="334"/>
         <path fill="rgb(211,42,35)" stroke="none" d="M 2315,355 C 2361,355 2413,354 2412,409 2412,460 2365,461 2316,460 L 2315,355 Z M 2315,355 L 2315,355 Z M 2268,647 L 2315,649 2316,505 C 2343,501 2360,505 2375,519 2411,551 2441,606 2468,649 L 2523,647 C 2508,613 2441,523 2411,488 2504,437 2461,318 2369,316 L 2268,317 2268,647 Z"/>
        </g>
       </g>
       <g class="com.sun.star.drawing.PolyPolygonShape">
        <g id="id6">
         <rect class="BoundingBox" stroke="none" fill="none" x="3267" y="315" width="196" height="334"/>
         <path fill="rgb(204,43,36)" stroke="none" d="M 3268,647 L 3462,647 3462,606 3315,604 3315,502 3453,501 3453,459 3317,458 3319,360 3458,355 3457,315 3268,315 3268,647 Z"/>
        </g>
       </g>
       <g class="com.sun.star.drawing.ClosedBezierShape">
        <g id="id7">
         <rect class="BoundingBox" stroke="none" fill="none" x="1944" y="313" width="215" height="336"/>
         <path fill="rgb(205,43,28)" stroke="none" d="M 1992,357 C 2045,355 2105,348 2105,409 2105,466 2046,465 1992,460 L 1992,357 Z M 1992,357 L 1992,357 Z M 1945,647 L 1992,647 1995,505 C 2016,498 2178,523 2155,388 2140,330 2125,308 1945,315 L 1945,647 Z"/>
        </g>
       </g>
       <g class="com.sun.star.drawing.ClosedBezierShape">
        <g id="id8">
         <rect class="BoundingBox" stroke="none" fill="none" x="3553" y="315" width="281" height="334"/>
         <path fill="rgb(204,43,36)" stroke="none" d="M 3554,337 L 3554,356 3667,358 3668,646 3716,647 C 3717,551 3715,455 3718,360 3734,354 3813,358 3831,358 L 3832,315 3554,317 3554,337 Z"/>
        </g>
       </g>
       <g class="com.sun.star.drawing.ClosedBezierShape">
        <g id="id9">
         <rect class="BoundingBox" stroke="none" fill="none" x="3009" y="315" width="117" height="444"/>
         <path fill="rgb(205,43,28)" stroke="none" d="M 3010,713 L 3019,757 C 3128,767 3125,682 3125,591 L 3124,315 3077,315 C 3072,421 3081,572 3075,662 3072,711 3055,707 3010,713 Z"/>
        </g>
       </g>
       <g class="com.sun.star.drawing.ClosedBezierShape">
        <g id="id10">
         <rect class="BoundingBox" stroke="none" fill="none" x="100" y="130" width="1659" height="2243"/>
         <path fill="rgb(30,26,23)" stroke="none" d="M 1757,2182 L 1757,1843 C 1749,1844 1685,1891 1670,1902 1571,1965 1479,2013 1359,2047 799,2206 379,1834 371,1282 369,1087 408,933 489,792 557,676 670,557 802,495 964,419 1136,413 1319,455 1435,481 1542,531 1642,588 L 1738,647 1737,311 C 1696,295 1654,272 1614,253 1481,195 1326,149 1179,135 943,114 750,176 589,279 549,304 469,367 437,402 421,420 407,433 393,450 193,674 100,941 100,1267 100,1565 189,1807 353,2027 389,2073 412,2089 442,2124 476,2162 557,2219 598,2245 886,2426 1324,2400 1641,2250 1669,2236 1739,2198 1757,2182 Z"/>
        </g>
       </g>
       <g class="com.sun.star.drawing.ClosedBezierShape">
        <g id="id11">
         <rect class="BoundingBox" stroke="none" fill="none" x="2672" y="783" width="1347" height="1283"/>
         <path fill="rgb(214,38,29)" stroke="none" d="M 2932,904 C 2944,915 2952,922 2964,934 L 3024,987 C 3043,1005 3041,1012 3067,1031 3081,1025 3101,1011 3117,1003 3174,974 3244,958 3311,955 3413,950 3508,967 3583,1008 3710,1075 3829,1211 3833,1409 3839,1706 3615,1897 3350,1899 3279,1900 3208,1890 3144,1862 3127,1855 3103,1841 3088,1837 3063,1832 3059,1818 3044,1806 3025,1790 3003,1779 2984,1754 2967,1731 2934,1707 2937,1687 2926,1683 2934,1690 2925,1677 2920,1672 2919,1668 2917,1663 2911,1654 2907,1646 2902,1635 2871,1569 2858,1501 2858,1423 2859,1332 2889,1217 2934,1164 2920,1143 2943,1164 2909,1127 2884,1100 2829,1043 2800,1034 2794,1048 2782,1059 2774,1071 2765,1086 2758,1096 2750,1112 2651,1296 2644,1555 2749,1739 2761,1761 2795,1805 2800,1822 2813,1826 2838,1862 2850,1874 2868,1893 2903,1925 2927,1936 2940,1941 2942,1940 2945,1952 3024,2020 3183,2056 3292,2063 3428,2071 3571,2041 3672,1989 3860,1891 4022,1706 4017,1412 4009,920 3509,677 3085,827 3057,837 3030,849 3004,863 2990,871 2938,904 2932,904 Z"/>
        </g>
       </g>
       <g class="com.sun.star.drawing.ClosedBezierShape">
        <g id="id12">
         <rect class="BoundingBox" stroke="none" fill="none" x="1855" y="785" width="1345" height="1279"/>
         <path fill="rgb(136,33,26)" stroke="none" d="M 2948,1950 C 2944,1939 2942,1941 2928,1935 2904,1925 2871,1893 2851,1873 2841,1862 2814,1826 2802,1821 2765,1841 2740,1858 2694,1873 2562,1917 2395,1904 2281,1841 1936,1649 1981,1165 2281,1012 2399,952 2559,933 2694,978 2727,990 2784,1013 2802,1033 2832,1044 2886,1099 2910,1125 2944,1163 2921,1143 2936,1163 2985,1224 3014,1327 3013,1427 3013,1479 3005,1529 2991,1573 2971,1641 2948,1665 2939,1688 2936,1706 2970,1730 2986,1753 3005,1778 3025,1788 3044,1804 3059,1817 3064,1832 3088,1835 L 3066,1819 C 3153,1694 3200,1599 3199,1422 3197,1343 3185,1263 3159,1197 3119,1091 3085,1067 3067,1030 3042,1013 3044,1006 3024,987 L 2966,935 C 2954,923 2945,916 2933,905 2911,894 2885,876 2860,862 2672,760 2387,762 2200,856 2014,951 1854,1143 1855,1434 1857,1841 2193,2101 2607,2058 2707,2048 2826,2012 2909,1957 2931,1942 2925,1937 2948,1950 Z"/>
        </g>
       </g>
       <g class="com.sun.star.drawing.ClosedBezierShape">
        <g id="id13">
         <rect class="BoundingBox" stroke="none" fill="none" x="6901" y="800" width="1183" height="1220"/>
         <path fill="rgb(30,26,23)" stroke="none" d="M 7477,1070 C 7506,1128 7663,1471 7674,1506 L 7298,1505 7477,1070 Z M 7477,1070 L 7477,1070 Z M 6902,2018 L 7076,2017 C 7088,2003 7211,1703 7230,1659 L 7746,1659 7907,2017 8082,2018 C 8081,1997 7967,1753 7949,1713 7905,1611 7860,1510 7814,1408 7725,1218 7630,999 7544,801 7401,801 7425,792 7406,837 L 7356,951 C 7334,1002 7313,1051 7291,1104 7209,1300 7116,1518 7031,1713 7011,1758 6910,1989 6902,2018 Z"/>
        </g>
       </g>
       <g class="com.sun.star.drawing.ClosedBezierShape">
        <g id="id14">
         <rect class="BoundingBox" stroke="none" fill="none" x="5076" y="808" width="706" height="1210"/>
         <path fill="rgb(30,26,23)" stroke="none" d="M 5077,2016 L 5781,2015 5781,1863 5249,1862 5249,1486 5747,1486 5746,1332 5249,1332 5249,963 C 5393,959 5618,960 5763,963 L 5764,808 5077,808 5077,2016 Z"/>
        </g>
       </g>
       <g class="com.sun.star.drawing.ClosedBezierShape">
        <g id="id15">
         <rect class="BoundingBox" stroke="none" fill="none" x="4162" y="804" width="766" height="1215"/>
         <path fill="rgb(30,26,23)" stroke="none" d="M 4336,1338 L 4337,960 C 4523,959 4749,929 4748,1148 4748,1242 4698,1300 4625,1324 4558,1346 4414,1339 4336,1338 Z M 4336,1338 L 4336,1338 Z M 4162,2017 L 4336,2016 4336,1493 C 4495,1493 4660,1503 4782,1428 4879,1369 4950,1233 4919,1068 4895,940 4791,845 4660,818 4567,799 4274,806 4162,806 L 4162,2017 Z"/>
        </g>
       </g>
       <g class="com.sun.star.drawing.ClosedBezierShape">
        <g id="id16">
         <rect class="BoundingBox" stroke="none" fill="none" x="5968" y="808" width="933" height="1211"/>
         <path fill="rgb(27,25,24)" stroke="none" d="M 6141,955 L 6167,955 C 6328,943 6510,969 6490,1168 6482,1243 6436,1295 6380,1317 6320,1340 6212,1336 6141,1336 L 6141,1318 6141,955 Z M 6141,955 L 6141,955 Z M 5968,2017 L 6141,2016 6142,1490 C 6275,1494 6298,1485 6390,1578 6404,1592 6412,1597 6424,1614 6429,1620 6433,1623 6438,1630 6521,1735 6521,1757 6587,1856 L 6696,2017 6900,2017 C 6899,2011 6815,1896 6797,1871 6754,1802 6647,1628 6597,1569 6540,1499 6547,1509 6468,1444 6489,1427 6529,1423 6585,1367 6694,1257 6702,1070 6605,942 6552,872 6441,819 6350,813 L 5968,808 5968,2017 Z"/>
        </g>
       </g>
       <g class="com.sun.star.drawing.ClosedBezierShape">
        <g id="id17">
         <rect class="BoundingBox" stroke="none" fill="none" x="8223" y="808" width="934" height="1211"/>
         <path fill="rgb(27,25,24)" stroke="none" d="M 8396,955 L 8422,955 C 8584,946 8765,969 8746,1168 8738,1243 8692,1295 8635,1317 8575,1340 8467,1336 8396,1336 L 8396,1318 8396,955 Z M 8396,955 L 8396,955 Z M 8224,2017 L 8396,2016 8397,1490 C 8531,1494 8554,1485 8646,1578 8659,1592 8667,1597 8679,1614 8685,1620 8688,1623 8694,1630 8777,1735 8777,1757 8842,1856 L 8952,2017 9155,2017 C 9154,2011 9070,1896 9053,1871 9009,1802 8902,1628 8853,1569 8795,1499 8802,1509 8724,1444 8745,1427 8785,1423 8840,1367 8949,1257 8957,1070 8861,942 8808,872 8696,819 8605,813 L 8224,808 8224,2017 Z"/>
        </g>
       </g>
       <g class="com.sun.star.drawing.ClosedBezierShape">
        <g id="id18">
         <rect class="BoundingBox" stroke="none" fill="none" x="6199" y="2185" width="229" height="242"/>
         <path fill="rgb(204,43,36)" stroke="none" d="M 6311,2238 C 6315,2250 6345,2317 6348,2324 L 6276,2324 6311,2238 Z M 6311,2238 L 6311,2238 Z M 6199,2426 L 6233,2426 C 6235,2422 6259,2363 6263,2354 L 6361,2355 6394,2426 6427,2426 C 6427,2421 6405,2374 6402,2366 6394,2345 6384,2326 6376,2306 6358,2267 6340,2223 6323,2185 6296,2185 6300,2184 6297,2192 L 6287,2214 C 6283,2224 6279,2234 6275,2244 6259,2283 6240,2327 6223,2366 6220,2374 6200,2420 6199,2426 Z"/>
        </g>
       </g>
       <g class="com.sun.star.drawing.ClosedBezierShape">
        <g id="id19">
         <rect class="BoundingBox" stroke="none" fill="none" x="6506" y="2185" width="188" height="242"/>
         <path fill="rgb(204,43,36)" stroke="none" d="M 6540,2214 L 6545,2214 C 6578,2212 6614,2216 6610,2256 6609,2271 6599,2281 6589,2285 6576,2290 6555,2290 6540,2290 L 6540,2286 6540,2214 Z M 6540,2214 L 6540,2214 Z M 6506,2426 L 6540,2426 6541,2321 C 6567,2322 6572,2320 6590,2338 6594,2342 6595,2343 6597,2345 6598,2346 6599,2347 6601,2348 6617,2369 6617,2374 6629,2393 L 6652,2426 6693,2426 C 6693,2424 6675,2401 6672,2397 6664,2383 6641,2348 6632,2336 6620,2322 6621,2324 6606,2312 6610,2308 6618,2307 6629,2296 6652,2274 6654,2237 6633,2212 6623,2197 6601,2186 6582,2185 L 6506,2185 6506,2426 Z"/>
        </g>
       </g>
       <g class="com.sun.star.drawing.ClosedBezierShape">
        <g id="id20">
         <rect class="BoundingBox" stroke="none" fill="none" x="6744" y="2185" width="230" height="242"/>
         <path fill="rgb(204,43,36)" stroke="none" d="M 6856,2238 C 6861,2250 6890,2317 6893,2324 L 6821,2324 6856,2238 Z M 6856,2238 L 6856,2238 Z M 6744,2426 L 6778,2426 C 6780,2422 6804,2363 6808,2354 L 6907,2355 6939,2426 6972,2426 C 6972,2421 6950,2374 6947,2366 6939,2345 6930,2326 6922,2306 6903,2267 6885,2223 6869,2185 6841,2185 6846,2184 6842,2192 L 6832,2214 C 6828,2224 6824,2234 6820,2244 6804,2283 6785,2327 6769,2366 6765,2374 6746,2420 6744,2426 Z"/>
        </g>
       </g>
       <g class="com.sun.star.drawing.ClosedBezierShape">
        <g id="id21">
         <rect class="BoundingBox" stroke="none" fill="none" x="7423" y="2185" width="229" height="242"/>
         <path fill="rgb(204,43,36)" stroke="none" d="M 7535,2238 C 7539,2250 7569,2317 7571,2324 L 7500,2324 7535,2238 Z M 7535,2238 L 7535,2238 Z M 7423,2426 L 7456,2426 C 7459,2422 7483,2363 7486,2354 L 7585,2355 7617,2426 7651,2426 C 7651,2421 7629,2374 7625,2366 7617,2345 7608,2326 7600,2306 7582,2267 7563,2223 7547,2185 7520,2185 7524,2184 7521,2192 L 7510,2214 C 7507,2224 7502,2234 7499,2244 7483,2283 7463,2327 7447,2366 7444,2374 7424,2420 7423,2426 Z"/>
        </g>
       </g>
       <g class="com.sun.star.drawing.ClosedBezierShape">
        <g id="id22">
         <rect class="BoundingBox" stroke="none" fill="none" x="7195" y="2186" width="165" height="244"/>
         <path fill="rgb(204,43,36)" stroke="none" d="M 7271,2429 L 7195,2428 7195,2187 C 7225,2186 7248,2186 7262,2186 7286,2186 7306,2191 7321,2201 7334,2210 7341,2225 7341,2244 7341,2256 7338,2274 7330,2282 7321,2291 7310,2297 7300,2299 7321,2304 7337,2312 7345,2322 7354,2332 7359,2340 7359,2358 7359,2380 7354,2398 7338,2411 7321,2423 7298,2429 7271,2429 Z M 7271,2429 L 7271,2429 Z M 7229,2217 L 7229,2283 C 7238,2284 7241,2285 7252,2285 7284,2285 7300,2277 7300,2252 7300,2229 7285,2219 7255,2219 7244,2219 7239,2217 7229,2217 Z M 7229,2217 L 7229,2217 Z M 7229,2322 L 7229,2394 C 7242,2396 7250,2394 7257,2394 7314,2401 7341,2363 7305,2332 7298,2325 7280,2321 7257,2321 L 7229,2322 Z"/>
        </g>
       </g>
       <g class="com.sun.star.drawing.PolyPolygonShape">
        <g id="id23">
         <rect class="BoundingBox" stroke="none" fill="none" x="7060" y="2118" width="63" height="54"/>
         <path fill="rgb(204,43,36)" stroke="none" d="M 7061,2170 L 7081,2118 7122,2118 7085,2170 7061,2170 Z"/>
        </g>
       </g>
       <g class="com.sun.star.drawing.PolyPolygonShape">
        <g id="id24">
         <rect class="BoundingBox" stroke="none" fill="none" x="7056" y="2187" width="34" height="242"/>
         <path fill="rgb(204,43,36)" stroke="none" d="M 7056,2428 L 7056,2187 7088,2187 7088,2428 7056,2428 Z"/>
        </g>
       </g>
       <g class="com.sun.star.drawing.PolyPolygonShape">
        <g id="id25">
         <rect class="BoundingBox" stroke="none" fill="none" x="9042" y="2185" width="153" height="242"/>
         <path fill="rgb(204,43,36)" stroke="none" d="M 9042,2426 L 9042,2185 9073,2185 9073,2397 9193,2397 9193,2426 9042,2426 Z"/>
        </g>
       </g>
       <g class="com.sun.star.drawing.ClosedBezierShape">
        <g id="id26">
         <rect class="BoundingBox" stroke="none" fill="none" x="8683" y="2182" width="134" height="247"/>
         <path fill="rgb(204,43,36)" stroke="none" d="M 8684,2411 L 8684,2366 C 8692,2380 8695,2385 8723,2390 8727,2391 8732,2392 8735,2392 8749,2392 8759,2389 8766,2384 8773,2378 8777,2370 8777,2360 8777,2354 8776,2350 8773,2346 8771,2342 8768,2338 8764,2335 8759,2331 8755,2328 8749,2325 8745,2322 8738,2319 8732,2315 8725,2312 8719,2307 8712,2301 8707,2297 8701,2292 8696,2288 8693,2282 8689,2276 8687,2269 8685,2262 8684,2255 8684,2246 8684,2236 8685,2225 8689,2217 8694,2209 8699,2204 8705,2198 8712,2192 8722,2189 8731,2186 8739,2184 8748,2183 8757,2183 8778,2183 8799,2193 8808,2199 L 8808,2237 C 8796,2228 8777,2216 8759,2216 8755,2216 8749,2216 8745,2217 8740,2219 8735,2219 8732,2221 8728,2224 8725,2227 8723,2231 8720,2235 8719,2239 8719,2245 8719,2251 8719,2254 8722,2259 8724,2262 8726,2266 8730,2269 8733,2273 8738,2275 8742,2278 8748,2281 8754,2284 8761,2288 8768,2292 8773,2297 8780,2301 8787,2307 8796,2312 8801,2317 8805,2323 8810,2329 8812,2336 8815,2343 8816,2351 8816,2360 8816,2371 8816,2383 8811,2391 8808,2399 8801,2409 8794,2415 8787,2420 8777,2422 8768,2424 8758,2427 8749,2428 8740,2428 8736,2428 8732,2428 8727,2427 8723,2427 8716,2426 8711,2424 8709,2423 8686,2413 8684,2411 Z"/>
        </g>
       </g>
       <g class="com.sun.star.drawing.ClosedBezierShape">
        <g id="id27">
         <rect class="BoundingBox" stroke="none" fill="none" x="6022" y="2184" width="152" height="244"/>
         <path fill="rgb(204,43,36)" stroke="none" d="M 6022,2427 L 6022,2184 6080,2184 C 6096,2184 6107,2184 6116,2185 6128,2187 6138,2191 6146,2197 6154,2202 6161,2212 6166,2221 6170,2231 6173,2243 6173,2255 6173,2276 6167,2293 6153,2307 6141,2321 6116,2328 6082,2328 L 6054,2328 6054,2427 6022,2427 Z M 6022,2427 L 6022,2427 Z M 6054,2291 L 6083,2291 C 6118,2296 6149,2276 6131,2231 6127,2223 6120,2219 6112,2216 6106,2215 6097,2214 6082,2214 L 6054,2214 6054,2291 Z"/>
        </g>
       </g>
       <g class="com.sun.star.drawing.ClosedBezierShape">
        <g id="id28">
         <rect class="BoundingBox" stroke="none" fill="none" x="8151" y="2185" width="188" height="242"/>
         <path fill="rgb(204,43,36)" stroke="none" d="M 8184,2214 L 8190,2214 C 8222,2212 8259,2216 8255,2256 8253,2271 8244,2281 8234,2285 8221,2290 8199,2290 8184,2290 L 8184,2286 8184,2214 Z M 8184,2214 L 8184,2214 Z M 8151,2426 L 8184,2426 8186,2321 C 8212,2322 8217,2320 8235,2338 8238,2342 8240,2343 8242,2345 8243,2346 8244,2347 8245,2348 8261,2369 8261,2374 8274,2393 L 8297,2426 8337,2426 C 8337,2424 8320,2401 8317,2397 8309,2383 8286,2348 8276,2336 8265,2322 8266,2324 8251,2312 8255,2308 8263,2307 8274,2296 8297,2274 8298,2237 8278,2212 8267,2197 8245,2186 8227,2185 L 8151,2185 8151,2426 Z"/>
        </g>
       </g>
       <g class="com.sun.star.drawing.ClosedBezierShape">
        <g id="id29">
         <rect class="BoundingBox" stroke="none" fill="none" x="8383" y="2185" width="230" height="242"/>
         <path fill="rgb(204,43,36)" stroke="none" d="M 8495,2238 C 8500,2250 8529,2317 8532,2324 L 8460,2324 8495,2238 Z M 8495,2238 L 8495,2238 Z M 8383,2426 L 8417,2426 C 8419,2422 8443,2363 8447,2354 L 8546,2355 8578,2426 8611,2426 C 8611,2421 8589,2374 8586,2366 8578,2345 8569,2326 8561,2306 8542,2267 8524,2223 8508,2185 8480,2185 8485,2184 8481,2192 L 8471,2214 C 8467,2224 8463,2234 8459,2244 8443,2283 8424,2327 8408,2366 8404,2374 8385,2420 8383,2426 Z"/>
        </g>
       </g>
       <g class="com.sun.star.drawing.PolyPolygonShape">
        <g id="id30">
         <rect class="BoundingBox" stroke="none" fill="none" x="8906" y="2187" width="34" height="242"/>
         <path fill="rgb(204,43,36)" stroke="none" d="M 8907,2428 L 8907,2187 8939,2187 8939,2428 8907,2428 Z"/>
        </g>
       </g>
       <g class="com.sun.star.drawing.ClosedBezierShape">
        <g id="id31">
         <rect class="BoundingBox" stroke="none" fill="none" x="7892" y="2186" width="165" height="244"/>
         <path fill="rgb(204,43,36)" stroke="none" d="M 7968,2429 L 7892,2428 7892,2187 C 7922,2186 7945,2186 7959,2186 7983,2186 8003,2191 8018,2201 8031,2210 8038,2225 8038,2244 8038,2256 8035,2274 8027,2282 8018,2291 8007,2297 7997,2299 8018,2304 8034,2312 8042,2322 8051,2332 8056,2340 8056,2358 8056,2380 8051,2398 8035,2411 8018,2423 7995,2429 7968,2429 Z M 7968,2429 L 7968,2429 Z M 7926,2217 L 7926,2283 C 7935,2284 7938,2285 7949,2285 7981,2285 7997,2277 7997,2252 7997,2229 7982,2219 7952,2219 7941,2219 7936,2217 7926,2217 Z M 7926,2217 L 7926,2217 Z M 7926,2322 L 7926,2394 C 7939,2396 7947,2394 7954,2394 8011,2401 8038,2363 8002,2332 7995,2325 7977,2321 7954,2321 L 7926,2322 Z"/>
        </g>
       </g>
       <g class="com.sun.star.drawing.PolyPolygonShape">
        <g id="id32">
         <rect class="BoundingBox" stroke="none" fill="none" x="7723" y="2331" width="88" height="35"/>
         <path fill="rgb(204,43,36)" stroke="none" d="M 7723,2331 L 7809,2331 7809,2365 7723,2365 7723,2331 Z"/>
        </g>
       </g>
      </g>
     </g>
    </g>
   </g>
  </g>
 </g>
</svg>